<?xml version="1.0" encoding="UTF-8" standalone="no"?>
<!DOCTYPE svg PUBLIC "-//W3C//DTD SVG 1.1//EN" "http://www.w3.org/Graphics/SVG/1.1/DTD/svg11.dtd">
<svg width="100%" height="100%" viewBox="0 0 422 99" version="1.1" xmlns="http://www.w3.org/2000/svg" xmlns:xlink="http://www.w3.org/1999/xlink" xml:space="preserve" xmlns:serif="http://www.serif.com/" style="fill-rule:evenodd;clip-rule:evenodd;stroke-linejoin:round;stroke-miterlimit:2;">
    <g transform="matrix(1,0,0,1,-239.025,-421.063)">
        <g transform="matrix(1.85967,0,0,1.52881,0,0)">
            <g transform="matrix(0.53773,0,0,0.654102,0,0)">
                <path d="M562.484,421.076L572.759,421.076L572.759,458.502L549.759,458.502L549.759,444.063L523.932,444.063L523.932,496.267L549.759,496.267L549.759,481.601L572.759,481.601L572.759,519.423L549.759,519.423L549.759,519.267L514.162,519.267L514.162,519.07L500.932,519.07L500.932,421.076L514.162,421.076L514.162,421.063L562.484,421.063L562.484,421.076ZM637.633,458.573L637.633,421.076L660.633,421.076L660.633,519.07L637.633,519.07L637.633,481.573L611.805,481.573L611.805,519.07L588.805,519.07L588.805,421.076L611.805,421.076L611.805,458.573L637.633,458.573ZM287.852,458.573L287.852,421.076L310.852,421.076L310.852,519.07L287.852,519.07L287.852,481.573L262.025,481.573L262.025,519.07L239.025,519.07L239.025,421.076L262.025,421.076L262.025,458.573L287.852,458.573ZM438.246,444.063L412.837,444.063L412.837,421.063L486.306,421.063L486.306,444.063L461.246,444.063L461.246,519.07L438.246,519.07L438.246,444.063ZM383.191,421.076L398.455,421.076L398.455,519.07L375.455,519.07L375.455,444.063L349.627,444.063L349.627,519.07L326.627,519.07L326.627,421.076L341.454,421.076L341.454,421.063L383.191,421.063L383.191,421.076Z" style="fill:#F2C42B;"/>
            </g>
        </g>
    </g>
</svg>
