<?xml version="1.0" encoding="UTF-8" standalone="no"?>
<!DOCTYPE svg PUBLIC "-//W3C//DTD SVG 1.1//EN" "http://www.w3.org/Graphics/SVG/1.1/DTD/svg11.dtd">
<svg width="100%" height="100%" viewBox="0 0 1000 325" version="1.1" xmlns="http://www.w3.org/2000/svg" xmlns:xlink="http://www.w3.org/1999/xlink" xml:space="preserve" xmlns:serif="http://www.serif.com/" style="fill-rule:evenodd;clip-rule:evenodd;stroke-linecap:round;stroke-linejoin:round;stroke-miterlimit:1.5;">
    <g id="Artboard1" transform="matrix(1,0,0,1.62416,0,0)">
        <rect x="0" y="0" width="1000" height="200" style="fill:none;"/>
        <clipPath id="_clip1">
            <rect x="0" y="0" width="1000" height="200"/>
        </clipPath>
        <g clip-path="url(#_clip1)">
            <g transform="matrix(0.510985,0,0,0.314616,496.419,89.3425)">
                <g transform="matrix(-0.565005,0,0,0.565005,1102.78,-391.626)">
                    <g>
                        <path d="M296.7,865.4C298.9,887.1 302.7,908.5 308,929.7C308.5,931.6 311.4,930.8 310.9,928.9C305.7,908 301.9,886.8 299.7,865.4C299.5,863.5 296.5,863.5 296.7,865.4Z" style="fill:white;fill-rule:nonzero;"/>
                    </g>
                </g>
                <g transform="matrix(-0.565005,0,0,0.565005,1102.78,-391.626)">
                    <g>
                        <path d="M308.6,930.7C328.3,935.8 348.8,935.8 368.5,930.7C370.4,930.2 369.6,927.3 367.7,927.8C348.5,932.8 328.6,932.8 309.4,927.8C307.6,927.3 306.8,930.2 308.6,930.7Z" style="fill:white;fill-rule:nonzero;"/>
                    </g>
                </g>
                <g transform="matrix(-0.565005,0,0,0.565005,1102.78,-391.626)">
                    <g>
                        <path d="M370.8,927.7C372.1,906.4 373.8,885.1 375.8,863.8C376,861.9 373,861.9 372.8,863.8C370.8,885.1 369.1,906.4 367.8,927.7C367.7,929.6 370.7,929.6 370.8,927.7Z" style="fill:white;fill-rule:nonzero;"/>
                    </g>
                </g>
                <g transform="matrix(-0.565005,0,0,0.565005,1102.78,-391.626)">
                    <g>
                        <path d="M298.4,867C323.3,872.1 348.9,871.9 373.8,866.3C375.7,865.9 374.9,863 373,863.4C348.7,868.8 323.6,869.1 299.2,864.1C297.3,863.7 296.5,866.6 298.4,867Z" style="fill:white;fill-rule:nonzero;"/>
                    </g>
                </g>
                <g transform="matrix(-0.565005,0,0,0.565005,1102.78,-391.626)">
                    <g>
                        <path d="M298.1,874.2C298.9,878.3 304.1,878.1 307.3,878.4C315.4,879.1 323.6,879.3 331.7,879.1C339.5,878.9 347.3,878.3 355.1,877.4C361.3,876.6 367.3,875.8 372.8,872.7C374.5,871.8 373,869.2 371.3,870.1C361.4,875.6 347.7,875.4 336.6,875.9C331.1,876.1 325.5,876.2 320,876.1C317.1,876 301.6,876.7 301,873.4C300.6,871.5 297.8,872.3 298.1,874.2Z" style="fill:white;fill-rule:nonzero;"/>
                    </g>
                </g>
                <g transform="matrix(-0.565005,0,0,0.565005,1102.78,-391.626)">
                    <g>
                        <path d="M303.8,908.9C308.6,917.4 314.7,924.9 322,931.4C323.4,932.7 325.6,930.6 324.1,929.3C316.9,923 311,915.7 306.4,907.4C305.5,905.7 302.9,907.2 303.8,908.9Z" style="fill:white;fill-rule:nonzero;"/>
                    </g>
                </g>
                <g transform="matrix(-0.565005,0,0,0.565005,1102.78,-391.626)">
                    <g>
                        <path d="M299.9,885.8C310.1,903 322.5,918.8 336.7,933C338.1,934.4 340.2,932.2 338.8,930.9C324.8,916.9 312.6,901.3 302.5,884.3C301.5,882.7 298.9,884.2 299.9,885.8Z" style="fill:white;fill-rule:nonzero;"/>
                    </g>
                </g>
                <g transform="matrix(-0.565005,0,0,0.565005,1102.78,-391.626)">
                    <g>
                        <path d="M316.6,878.6C327.2,897.5 339.5,915.4 353.4,932.1C354.6,933.6 356.7,931.5 355.5,930C341.8,913.5 329.6,895.8 319.2,877.1C318.3,875.4 315.7,876.9 316.6,878.6Z" style="fill:white;fill-rule:nonzero;"/>
                    </g>
                </g>
                <g transform="matrix(-0.565005,0,0,0.565005,1102.78,-391.626)">
                    <g>
                        <path d="M335.7,879.3C346,894.7 356.4,910 366.9,925.3C368,926.9 370.6,925.4 369.5,923.8C359,908.5 348.6,893.2 338.3,877.8C337.2,876.2 334.6,877.7 335.7,879.3Z" style="fill:white;fill-rule:nonzero;"/>
                    </g>
                </g>
                <g transform="matrix(-0.565005,0,0,0.565005,1102.78,-391.626)">
                    <g>
                        <path d="M351.7,878.4C356.9,886.8 362.5,895 368.3,903C369.4,904.5 372,903 370.9,901.5C365.1,893.5 359.5,885.3 354.3,876.9C353.3,875.3 350.7,876.8 351.7,878.4Z" style="fill:white;fill-rule:nonzero;"/>
                    </g>
                </g>
                <g transform="matrix(-0.565005,0,0,0.565005,1102.78,-391.626)">
                    <g>
                        <path d="M265.2,777.4C266.4,784.3 267.6,791.3 268.9,798.2C269.3,800.1 269.6,802.1 271.2,803.3C272.3,804.2 275.9,804.1 276.6,805.1C276.7,804.5 276.8,803.9 276.8,803.3C275.3,804.8 273.8,806.3 272.2,807.7C271.8,808.1 271.7,808.7 271.8,809.2C272.7,811.9 273.3,815.9 275.1,818.2C276,819.4 277.6,819.2 278.3,819.9C278.9,820.5 278.7,820.1 278.4,821.9C278.2,823.4 278.2,825 278.4,826.6C278.7,829 279.4,831.3 280.3,833.5C285.5,846.1 295.6,856.3 305.3,865.7C306.7,867 308.8,864.9 307.4,863.6C301.2,857.6 295,851.4 289.9,844.4C284.9,837.5 279,828.2 282.1,819.4C282.3,818.9 282.1,818.2 281.7,817.9C279.8,816.4 277.9,817 276.6,814.6C274.1,810.1 275.5,808.6 278.7,805.5C279.2,805.1 279.3,804.2 278.9,803.7C278.1,802.5 277.5,802.1 276.2,801.7C275.4,801.4 274.2,801.7 273.4,801.3C271.7,800.4 271.7,798.2 271.4,796.6C270.2,790 269,783.3 267.9,776.7C267.7,774.7 264.8,775.5 265.2,777.4Z" style="fill:white;fill-rule:nonzero;"/>
                    </g>
                </g>
                <g transform="matrix(-0.565005,0,0,0.565005,1102.78,-391.626)">
                    <g>
                        <path d="M267.4,777C306.4,790 333.1,826.4 333.9,867.6C333.9,869.5 336.9,869.5 336.9,867.6C336.1,825.1 308.5,787.6 268.2,774.1C266.4,773.5 265.6,776.4 267.4,777Z" style="fill:white;fill-rule:nonzero;"/>
                    </g>
                </g>
                <g transform="matrix(-0.565005,0,0,0.565005,1102.78,-391.626)">
                    <g>
                        <path d="M327.3,826.6C337,799.7 351.3,773.7 374.2,756C375.7,754.8 374.2,752.2 372.7,753.4C349.1,771.7 334.4,798.1 324.4,825.8C323.8,827.6 326.7,828.4 327.3,826.6Z" style="fill:white;fill-rule:nonzero;"/>
                    </g>
                </g>
                <g transform="matrix(-0.565005,0,0,0.565005,1102.78,-391.626)">
                    <g>
                        <path d="M371.6,755.4C372.3,764.6 373.1,773.8 373.8,783.1C374,785 377,785 376.8,783.1C376.1,773.9 375.3,764.7 374.6,755.4C374.5,753.5 371.5,753.5 371.6,755.4Z" style="fill:white;fill-rule:nonzero;"/>
                    </g>
                </g>
                <g transform="matrix(-0.565005,0,0,0.565005,1102.78,-391.626)">
                    <g>
                        <path d="M375.1,782.1C373.8,782.4 372.5,782.7 371.3,783.1C369.4,783.6 370.2,786.5 372.1,786C373.4,785.7 374.7,785.4 375.9,785C377.8,784.5 377,781.7 375.1,782.1Z" style="fill:white;fill-rule:nonzero;"/>
                    </g>
                </g>
                <g transform="matrix(-0.565005,0,0,0.565005,1102.78,-391.626)">
                    <g>
                        <path d="M369.8,785.8C370.2,787.7 371.8,788.9 373.6,789.1C374.4,789.2 375.1,788.4 375.1,787.6C375.1,786.7 374.4,786.2 373.6,786.1C373.9,786.1 373.6,786.1 373.5,786.1C373.4,786.1 373.2,786 373.4,786.1C373.3,786 373.2,786 373.1,785.9C372.9,785.8 373.3,786.1 373,785.8C372.9,785.7 372.9,785.7 372.8,785.6C373,785.8 372.8,785.6 372.8,785.5C372.7,785.4 372.7,785.2 372.7,785.4C372.7,785.3 372.6,785.1 372.6,785C372.4,784.2 371.5,783.7 370.8,784C370,784.2 369.6,785 369.8,785.8Z" style="fill:white;fill-rule:nonzero;"/>
                    </g>
                </g>
                <g transform="matrix(-0.565005,0,0,0.565005,1102.78,-391.626)">
                    <g>
                        <path d="M372.1,788C372.2,793.7 372,799.3 371.4,804.9C371.2,806.7 371.5,810.9 370.3,812.3C370.2,812.4 368.4,812.7 368,813C366.5,814.2 368.6,816.3 370.1,815.1C370.6,814.7 371.8,815.1 372.6,814.2C373.8,813 373.6,810.2 373.8,808.8C374.7,801.9 375.1,794.9 375,787.9C375.1,786.1 372.1,786.1 372.1,788Z" style="fill:white;fill-rule:nonzero;"/>
                    </g>
                </g>
                <g transform="matrix(-0.565005,0,0,0.565005,1102.78,-391.626)">
                    <g>
                        <path d="M366.8,815.6C370,819.4 369.1,825.7 368.8,830.3C368.4,835.6 367.5,840.5 364.9,845.1C361.2,851.9 356,857.6 353.3,865C352.6,866.8 355.5,867.6 356.2,865.8C359.8,856.1 368.1,848.9 370.6,838.7C372.4,831.4 374.1,819.7 368.9,813.5C367.7,812.1 365.6,814.2 366.8,815.6Z" style="fill:white;fill-rule:nonzero;"/>
                    </g>
                </g>
                <g transform="matrix(-0.565005,0,0,0.565005,1102.78,-391.626)">
                    <g>
                        <path d="M343.2,866.4C346,838 353.5,810.3 365.5,784.5C366.3,782.8 363.7,781.2 362.9,783C350.7,809.4 343,837.5 340.2,866.5C340,868.4 343,868.3 343.2,866.4Z" style="fill:white;fill-rule:nonzero;"/>
                    </g>
                </g>
                <g transform="matrix(-0.565005,0,0,0.565005,1102.78,-391.626)">
                    <g>
                        <path d="M284.2,793.7C301.7,815.7 314.5,841 322,868C322.5,869.9 325.4,869.1 324.9,867.2C317.2,839.6 304.1,814 286.3,791.6C285.1,790.1 283,792.2 284.2,793.7Z" style="fill:white;fill-rule:nonzero;"/>
                    </g>
                </g>
                <g transform="matrix(-0.565005,0,0,0.565005,1102.78,-391.626)">
                    <g>
                        <path d="M286.1,830.6C294.5,830.1 302.3,832.1 309.4,836.5C311,837.5 312.6,834.9 310.9,833.9C303.4,829.3 294.9,827.1 286.1,827.6C284.1,827.7 284.1,830.7 286.1,830.6Z" style="fill:white;fill-rule:nonzero;"/>
                    </g>
                </g>
                <g transform="matrix(-0.565005,0,0,0.565005,1102.78,-391.626)">
                    <g>
                        <path d="M304.4,817.2C303.8,811.7 304.5,806.4 306.6,801.2C307.3,799.4 304.4,798.6 303.7,800.4C301.5,805.8 300.8,811.4 301.4,817.2C301.6,819.1 304.6,819.1 304.4,817.2Z" style="fill:white;fill-rule:nonzero;"/>
                    </g>
                </g>
                <g transform="matrix(-0.565005,0,0,0.565005,1102.78,-391.626)">
                    <g>
                        <path d="M336.8,800.6C340.1,808.7 344.9,817.3 346.1,825.9C346.4,827.8 349.3,827 349,825.1C347.7,816.4 342.9,807.8 339.7,799.8C339,798 336.1,798.8 336.8,800.6Z" style="fill:white;fill-rule:nonzero;"/>
                    </g>
                </g>
                <g transform="matrix(-0.565005,0,0,0.565005,1102.78,-391.626)">
                    <g>
                        <path d="M355.2,810.1C358.1,806.8 360.9,802.9 364.6,800.4C367.7,798.3 371.1,796.9 373.5,794C374.7,792.5 372.6,790.4 371.4,791.9C368.8,795 365,796.3 361.9,798.7C358.5,801.3 355.9,804.8 353.1,808C351.8,809.5 353.9,811.6 355.2,810.1Z" style="fill:white;fill-rule:nonzero;"/>
                    </g>
                </g>
                <g transform="matrix(-0.565005,0,0,0.565005,1102.78,-391.626)">
                    <g>
                        <path d="M356.2,865.4C361,864.1 365.9,863.6 370.9,863.9C372.8,864 372.8,861 370.9,860.9C365.6,860.6 360.5,861.1 355.4,862.5C353.6,863 354.3,865.9 356.2,865.4Z" style="fill:white;fill-rule:nonzero;"/>
                    </g>
                </g>
                <g transform="matrix(-0.565005,0,0,0.565005,1102.78,-391.626)">
                    <g>
                        <path d="M355.8,866.6C361.4,867.1 366.8,866.4 372.2,864.7C374,864.1 373.2,861.2 371.4,861.8C366.3,863.4 361.1,864 355.8,863.6C353.9,863.5 353.9,866.5 355.8,866.6Z" style="fill:white;fill-rule:nonzero;"/>
                    </g>
                </g>
                <g transform="matrix(-0.565005,0,0,0.565005,1102.78,-391.626)">
                    <g>
                        <path d="M299.7,866.1L303.5,866.1C305.4,866.1 305.4,863.1 303.5,863.1L299.7,863.1C297.8,863.1 297.8,866.1 299.7,866.1Z" style="fill:white;fill-rule:nonzero;"/>
                    </g>
                </g>
            </g>
            <g transform="matrix(1,0,0,0.615704,0,0)">
                <path d="M303.134,212.258C336.536,211.853 369.977,211.708 403.374,211.026C427.269,210.538 451.016,209.084 474.94,209.641C518.931,210.664 563.418,216.679 607.411,215.104" style="fill:none;stroke:white;stroke-width:1px;"/>
            </g>
            <g transform="matrix(1,0,0,0.615704,0,0)">
                <path d="M242.119,244.002C277.425,244.377 312.661,241.174 347.942,240.162C398.541,238.711 449.188,238.952 499.802,239.243C542.297,239.487 578.787,239.311 620.731,246.12" style="fill:none;stroke:white;stroke-width:1px;"/>
            </g>
            <g transform="matrix(1,0,0,0.615704,0,0)">
                <path d="M613.896,229.581C649.896,229.581 685.774,234.031 721.769,233.719C781.385,233.202 840.943,225.753 900.491,222.862C936.126,221.132 971.589,224.596 1007.15,223.346" style="fill:none;stroke:white;stroke-width:1px;"/>
            </g>
            <g transform="matrix(1,0,0,0.615704,0,0)">
                <path d="M862.783,254.374C911.203,253.479 960.304,252.62 1008.67,255.497" style="fill:none;stroke:white;stroke-width:1px;"/>
            </g>
            <g transform="matrix(1,0,0,0.615704,0,0)">
                <path d="M1006.89,273.1C987.856,274.009 969.512,269.073 950.587,269.501C933.988,269.876 917.305,275.649 900.179,276.366" style="fill:none;stroke:white;stroke-width:1px;"/>
            </g>
            <g transform="matrix(1,0,0,0.615704,-23.3351,0.4081)">
                <path d="M780.843,268.562C798.666,266.699 817.079,263.863 835.034,263.405C859.034,262.794 883.054,265.132 907.032,265.685" style="fill:none;stroke:white;stroke-width:1px;"/>
            </g>
            <g transform="matrix(1,0,0,0.615704,0,0)">
                <path d="M899.337,294.414C878.476,289.632 857.233,296.445 836.187,295.501C823.198,294.918 811.197,290.308 798.493,288.19C781.354,285.332 764.448,285.646 747.419,289.038" style="fill:none;stroke:white;stroke-width:1px;"/>
            </g>
            <g transform="matrix(1,0,0,0.615704,0,0)">
                <path d="M177.939,222.518C115.294,223.648 52.377,216.411 -10.24,220.824" style="fill:none;stroke:white;stroke-width:1px;"/>
            </g>
            <g transform="matrix(1,0,0,0.615704,0,0)">
                <path d="M242.69,222.888C254.296,223.12 265.908,223.028 277.516,223.107" style="fill:none;stroke:white;stroke-width:1px;"/>
            </g>
            <g transform="matrix(1,0,0,0.615704,0,0)">
                <path d="M195.011,246.753C173.688,245.804 152.386,243.7 131.049,243.339C116.203,243.088 100.962,244.302 86.118,244.921" style="fill:none;stroke:white;stroke-width:1px;"/>
            </g>
            <g transform="matrix(1,0,0,0.615704,0,0)">
                <path d="M143.161,263.923C154.223,263.118 165.279,261.263 176.368,261.021C185.606,260.819 194.841,262.061 204.076,261.704C210.725,261.447 217.269,260.012 223.932,259.74C231.133,259.446 238.329,260.211 245.53,260.209C261.111,260.204 276.543,259.922 292.111,261.022" style="fill:none;stroke:white;stroke-width:1px;"/>
            </g>
            <g transform="matrix(-0.2595,0,0,0.159775,369.961,6.05056)">
                <g>
                    <path d="M1158.2,534.9C1148.2,531.1 1141.9,521.1 1143.7,510.4C1145.5,499.5 1156.2,489.8 1167.2,496.3C1174.8,500.8 1178.7,511 1175.8,519.3C1172.8,528.2 1163,533.5 1153.9,532.1C1152,531.8 1151.2,534.7 1153.1,535C1163.8,536.6 1175.1,530.7 1178.7,520.1C1182.3,509.5 1176.5,496.7 1166.1,492.4C1153.9,487.4 1142.8,497.9 1140.7,509.6C1138.5,522 1145.8,533.4 1157.3,537.8C1159.2,538.5 1160,535.6 1158.2,534.9Z" style="fill:white;fill-rule:nonzero;"/>
                </g>
            </g>
            <g transform="matrix(-0.335111,0,0,0.206329,457.176,-17.7485)">
                <g>
                    <path d="M1178.7,533C1158.8,532.4 1166.3,500.5 1183.9,501.7C1201.5,503 1194.3,538.9 1175,532.3C1173.2,531.7 1172.4,534.6 1174.2,535.2C1196.5,542.8 1206.5,502.2 1185.2,498.8C1174.8,497.1 1165.4,506.9 1163.8,516.6C1162.2,526.2 1168.7,535.6 1178.7,535.9C1180.6,536.1 1180.6,533.1 1178.7,533Z" style="fill:white;fill-rule:nonzero;"/>
                </g>
            </g>
            <g transform="matrix(-0.292028,0,0,0.179803,405.055,-14.0562)">
                <g>
                    <path d="M1163.8,442.5C1162.1,440.7 1161.3,437.8 1162.6,435.6C1163.9,433.5 1167.1,432.5 1169.1,434.1C1170.9,435.5 1171.3,438.5 1169.6,440C1167.6,441.8 1164.4,440.9 1162.5,439.4C1161,438.2 1158.9,440.3 1160.4,441.5C1163.5,443.9 1168.3,445.1 1171.6,442.2C1174.6,439.5 1174.3,434.5 1171.3,431.9C1168.2,429.2 1163.3,430 1160.7,433C1157.8,436.4 1158.6,441.5 1161.6,444.6C1163,446 1165.1,443.9 1163.8,442.5Z" style="fill:white;fill-rule:nonzero;"/>
                </g>
            </g>
            <g transform="matrix(-0.333093,0,0,0.205087,503.918,-34.6935)">
                <g>
                    <path d="M873.6,517.8C870.8,500.8 880.7,480.3 899.9,480.5C909.7,480.6 919.2,484.6 929.1,483.2C936.1,482.2 942.1,478.2 946.3,472.7C950.5,467.2 952.9,460.3 953.3,453.4C953.8,443.2 949.9,432.8 952.7,422.7C954.1,417.6 957.1,412.9 962.2,411C967.1,409.3 972.4,410.3 977.5,410.1C984.9,409.8 990.7,406.6 994.4,400.1C999.6,391 998.4,380.1 1002,370.5C1006.3,358.9 1018.4,349 1031.2,354.7C1032.9,355.5 1034.5,352.9 1032.7,352.1C1015.3,344.3 1000.8,360 997.4,375.8C995.2,386.1 995.6,402.1 983.3,406.2C974.7,409.1 965,404.6 957.1,410.5C950.6,415.3 948.7,424.1 948.8,431.8C949.1,443.1 952.6,454.1 947.6,464.9C943,475.1 933.9,481.2 922.6,480.5C912.6,479.9 902.7,475.8 892.6,478.4C875.5,482.7 868.2,502.9 870.9,518.7C871.1,520.4 874,519.6 873.6,517.8Z" style="fill:white;fill-rule:nonzero;"/>
                </g>
            </g>
            <g transform="matrix(-0.333093,0,0,0.205087,486.378,-24.0376)">
                <g>
                    <path d="M1000,446.5C996.3,438.1 1001.4,430.1 1009.5,427.4C1015.4,425.4 1021.9,425.3 1027,421.3C1031,418.2 1032.3,414.3 1031.8,409.3C1031.3,404.6 1031.3,400.9 1035,397.7C1038.1,395 1042.2,394 1046.2,393.8C1057.2,393.4 1072.3,399 1080.3,388.3C1084,383.3 1082.9,377.1 1084.6,371.5C1086.9,363.7 1094.4,358.9 1102.4,359.3C1104.3,359.4 1104.3,356.4 1102.4,356.3C1096.3,356 1090.4,358.3 1086.2,362.7C1081,368.2 1081.7,374.4 1080.1,381.3C1075.8,400.2 1049.5,386.9 1037.1,392.8C1032.5,395 1028.8,398.9 1028.4,404.1C1027.9,410.2 1030.7,415.2 1024.5,419.4C1021.2,421.6 1017.4,422.3 1013.6,423.2C1007.3,424.7 1001.1,426.6 997.9,432.7C995.3,437.5 995.3,443 997.5,447.9C998.2,449.8 1000.7,448.2 1000,446.5Z" style="fill:white;fill-rule:nonzero;"/>
                </g>
            </g>
            <g transform="matrix(-0.313661,0,0,0.252341,434.396,-60.6794)">
                <g>
                    <path d="M1178.2,313.3C1177.8,312.4 1177.4,311.4 1177.1,310.4C1178.4,308.9 1179.6,307.4 1180.9,305.9C1181.3,305.8 1183.1,307 1183.7,307C1185.2,307.2 1186.5,306.8 1187.7,305.9C1191.4,303 1190.1,298.4 1191.2,294.5C1193,287.8 1200.9,292.4 1204.5,287.4C1208.1,282.5 1206.8,272.1 1216.4,274.9C1218.3,275.4 1219.1,272.5 1217.2,272C1211.7,270.4 1206.7,273 1204.7,278.3C1204.1,279.8 1203.9,281.5 1203.3,283C1202,286.5 1200.6,287 1196.8,287.2C1194,287.4 1191.8,287.2 1189.9,289.6C1188.3,291.7 1188.3,294.4 1188,296.9C1187.7,300.6 1188,303.7 1182.5,303.3C1181.4,303.2 1180.5,302.2 1179.3,302.2C1172.7,302.1 1173.8,310.2 1175.4,314.1C1176,315.9 1179,315.1 1178.2,313.3Z" style="fill:white;fill-rule:nonzero;"/>
                </g>
            </g>
            <g transform="matrix(-0.313661,0,0,0.252341,430.326,-55.3882)">
                <g>
                    <path d="M1197,321.6C1195.4,319.5 1192.7,313.4 1197.4,311.8C1199.1,311.2 1201.3,311.9 1203.1,311.9C1204.7,311.9 1206.1,311.9 1207.4,310.8C1211.4,307.6 1208.5,301.9 1210.6,297.9C1214,291.4 1220.8,296.5 1225.6,293.1C1229,290.7 1229.9,286.1 1230.5,282.3C1230.8,280.4 1227.9,279.6 1227.6,281.5C1226.9,286 1226.1,291 1220.5,291.5C1217.6,291.8 1215.4,290.8 1212.7,292.1C1208.3,294.2 1206.9,298.1 1206.8,302.6C1206.7,306.4 1207.6,308.3 1201.2,308.6C1200.4,308.6 1199.6,308.4 1198.8,308.4C1196.5,308.6 1194.5,309.8 1193.2,311.7C1190.4,315.7 1192,320.3 1194.8,323.8C1196.1,325.3 1198.2,323.1 1197,321.6Z" style="fill:white;fill-rule:nonzero;"/>
                </g>
            </g>
            <g transform="matrix(-0.353146,0,0,0.217433,1018.17,-44.5051)">
                <g>
                    <path d="M513.1,287.9C503.4,284.9 502.9,274.6 507.5,266.9C512,259.4 520.7,257.4 527.5,263.6C533.1,268.8 533.6,277.7 528.4,283.4C523.2,289.2 514.7,289.1 508.7,284.7C507.2,283.5 505.7,286.1 507.2,287.3C514.8,292.9 525.9,292 531.6,284.1C537.5,276.1 535.4,264.9 527.1,259.5C507.1,246.6 489.9,283.8 512.3,290.8C514.2,291.4 515,288.5 513.1,287.9Z" style="fill:white;fill-rule:nonzero;"/>
                </g>
            </g>
            <g transform="matrix(-0.3567,0,0,0.219622,1016.48,-44.6158)">
                <g>
                    <path d="M529.2,290.5C521.7,292.8 519.9,283.8 523.2,279C525.9,275.1 531.2,272.8 536,274.1C540.6,275.3 543.9,280 542.7,284.7C541.2,290.6 535,292.7 529.5,291.8C527.6,291.5 526.8,294.4 528.7,294.7C536.1,296 544.1,292.8 545.7,284.8C547.1,277.9 541.7,271.6 535,270.8C527.6,269.9 519.5,275.3 518.5,282.9C517.6,289.5 523.6,295.4 530.2,293.3C531.9,292.8 531.1,289.9 529.2,290.5Z" style="fill:white;fill-rule:nonzero;"/>
                </g>
            </g>
            <g transform="matrix(1,0,0,0.615704,6.5423,5.12904)">
                <path d="M772.354,124.013C775.38,120.116 779.435,115.15 780.532,110.359C781.791,104.861 778.65,100.962 783.953,96.59C792.181,89.807 806.105,95.057 812.462,86.633C817.781,79.585 813.024,72.325 814.637,64.589C818.337,46.845 837.417,43.612 852.649,45.5" style="fill:none;stroke:white;stroke-width:1px;"/>
            </g>
            <g transform="matrix(1,0,0,0.615704,0,0)">
                <path d="M788.955,152.56C798.158,135.948 812.783,148.323 824.63,138.816C832.221,132.723 833.424,122.738 838.047,114.754C841.604,108.612 848.356,103.915 855.17,102.019C862.474,99.986 872.475,100.388 879.787,101.688C886.38,102.859 894.874,104.818 901.082,101.362C908.651,97.149 908.206,87.058 908.598,79.595C909.423,63.862 910.164,49.008 928.045,44.152C933.088,42.782 938.48,42.058 943.728,42.049" style="fill:none;stroke:white;stroke-width:1px;"/>
            </g>
        </g>
    </g>
</svg>
