<?xml version="1.0" encoding="UTF-8" standalone="no"?>
<!DOCTYPE svg PUBLIC "-//W3C//DTD SVG 1.1//EN" "http://www.w3.org/Graphics/SVG/1.1/DTD/svg11.dtd">
<svg width="100%" height="100%" viewBox="0 0 94 66" version="1.1" xmlns="http://www.w3.org/2000/svg" xmlns:xlink="http://www.w3.org/1999/xlink" xml:space="preserve" xmlns:serif="http://www.serif.com/" style="fill-rule:evenodd;clip-rule:evenodd;stroke-linejoin:round;stroke-miterlimit:2;">
    <g transform="matrix(1,0,0,1,-1319,-412.358)">
        <g transform="matrix(2.2479e-17,-0.36711,0.36711,2.2479e-17,1276.48,501.233)">
            <g>
                <path d="M241.822,150.812C241.779,142.739 237.843,135.183 231.251,130.523C224.659,125.863 216.222,124.672 208.598,127.325C173.664,139.48 123.554,156.916 123.554,156.916C123.554,156.916 123.551,156.917 123.545,156.92C111.977,162.023 104.168,173.093 103.242,185.703C102.316,198.313 108.423,210.404 119.121,217.143C123.075,219.634 125.552,221.194 125.552,221.194L125.553,221.194C142.914,228.532 162.359,229.27 180.226,223.268C188.03,220.647 196.647,217.752 204.908,214.978C227.101,207.523 242.01,186.673 241.887,163.262C241.865,159.111 241.843,154.91 241.822,150.812Z" style="fill:rgb(241,243,245);"/>
            </g>
        </g>
        <g transform="matrix(2.2479e-17,-0.36711,0.36711,2.2479e-17,1276.48,501.233)">
            <g>
                <path d="M90.138,226.788C90.141,225.921 90.738,225.169 91.582,224.97C92.426,224.771 93.297,225.177 93.687,225.951C97.344,230.622 104.879,237.45 119.877,244.401C137.331,252.241 189.048,270.132 218.631,280.202C231.46,284.665 240.1,296.711 240.215,310.294C240.294,318.505 240.374,327.959 240.45,336.942C240.517,344.825 236.728,352.244 230.303,356.812C223.878,361.38 215.627,362.522 208.203,359.869C192.846,354.383 173.94,347.628 155.79,341.144C116.375,327.063 90.08,289.709 90.119,247.855C90.127,239.305 90.134,231.822 90.138,226.788Z" style="fill:rgb(241,243,245);"/>
            </g>
        </g>
    </g>
</svg>
