<?xml version="1.0" encoding="UTF-8" standalone="no"?>
<!DOCTYPE svg PUBLIC "-//W3C//DTD SVG 1.1//EN" "http://www.w3.org/Graphics/SVG/1.1/DTD/svg11.dtd">
<svg width="100%" height="100%" viewBox="0 0 327 327" version="1.1" xmlns="http://www.w3.org/2000/svg" xmlns:xlink="http://www.w3.org/1999/xlink" xml:space="preserve" xmlns:serif="http://www.serif.com/" style="fill-rule:evenodd;clip-rule:evenodd;stroke-linejoin:round;stroke-miterlimit:2;">
    <g id="Artboard1" transform="matrix(1.63344,0,0,1.6309,0,0)">
        <rect x="0" y="0" width="200" height="200" style="fill:none;"/>
        <g transform="matrix(0.347454,-0.0715509,0.0714397,0.347995,-125.011,36.1907)">
            <path d="M346.8,375.8C355.1,365.8 366.9,357.6 380.5,359C395.3,360.5 402.6,372.3 404,386.1C406.4,409 400.8,436.4 416.3,455.9C422.4,463.6 431.5,467.7 441.3,465.3C453.1,462.5 462.3,453.2 472.8,447.7C485.2,441.2 502.3,437.7 513.5,448.6C521.7,456.6 523.5,468.8 526.2,479.4C528.7,489 533,499.6 541.6,505.3C546.8,508.7 552.5,509 558.5,508.6C565.2,508.1 578.9,507.7 577.5,518.2C577.3,520.1 580.3,520.1 580.5,518.2C581,514.1 579.1,510.8 575.8,508.4C570.6,504.6 564.6,505.2 558.5,505.6C551.6,506.1 545.7,505.5 540.4,500.6C535.6,496.2 532.7,490 530.6,483.9C527.1,473.4 526.1,461.9 520.1,452.3C514.2,442.8 504,438.2 493,438.6C479.1,439.1 467.4,447.1 456.3,454.5C451,458 445.3,461.7 438.8,462.8C431,464.1 424.1,460.7 419.1,454.9C409.7,443.9 408.2,428.2 407.7,414.4C407.2,401.5 408.9,387.5 404.6,375C400.7,363.6 390.8,356.5 378.9,355.9C365.1,355.2 353,363.5 344.5,373.7C343.4,375.2 345.5,377.3 346.8,375.8Z" style="fill:rgb(242,196,43);fill-rule:nonzero;"/>
        </g>
        <g transform="matrix(0.354722,0,0,0.355274,-83.5421,-11.2014)">
            <path d="M465.4,355.6C463,360.5 466.4,365.4 471.4,366.7C475.2,367.7 479.2,366.8 483.1,367C487.3,367.2 491.5,368.2 495.3,369.9C503.7,373.7 509.1,380.6 509.4,389.9C509.7,397.7 507.4,405.8 510.8,413.2C518,428.8 537.8,416.9 548,427C556.5,435.5 553,451 564.4,457.5C566.1,458.5 567.6,455.9 565.9,454.9C555.7,449.1 558.1,434 550.9,425.6C547.1,421.2 541.6,420 536,419.6C529.2,419.2 520.4,420.6 515.4,414.8C509.6,408 512.7,397.8 512.4,389.8C512.2,383.5 510.1,377.8 505.7,373.3C501.8,369.4 496.7,366.7 491.4,365.3C488.7,364.6 485.9,364.1 483.1,364C479.5,363.8 463.9,365.6 468.1,357.1C468.9,355.4 466.3,353.9 465.4,355.6Z" style="fill:rgb(242,196,43);fill-rule:nonzero;"/>
        </g>
        <g transform="matrix(-0.204077,0.29059,0.290139,0.204394,158.012,-152.353)">
            <path d="M465.4,355.6C463,360.5 466.4,365.4 471.4,366.7C475.2,367.7 479.2,366.8 483.1,367C487.3,367.2 491.5,368.2 495.3,369.9C503.7,373.7 509.1,380.6 509.4,389.9C509.7,397.7 507.4,405.8 510.8,413.2C518,428.8 537.8,416.9 548,427C556.5,435.5 553,451 564.4,457.5C566.1,458.5 567.6,455.9 565.9,454.9C555.7,449.1 558.1,434 550.9,425.6C547.1,421.2 541.6,420 536,419.6C529.2,419.2 520.4,420.6 515.4,414.8C509.6,408 512.7,397.8 512.4,389.8C512.2,383.5 510.1,377.8 505.7,373.3C501.8,369.4 496.7,366.7 491.4,365.3C488.7,364.6 485.9,364.1 483.1,364C479.5,363.8 463.9,365.6 468.1,357.1C468.9,355.4 466.3,353.9 465.4,355.6Z" style="fill:rgb(242,196,43);fill-rule:nonzero;"/>
        </g>
        <g transform="matrix(0.304526,0,0,0.305,-50.5061,-12.1276)">
            <path d="M513.1,287.9C503.4,284.9 502.9,274.6 507.5,266.9C512,259.4 520.7,257.4 527.5,263.6C533.1,268.8 533.6,277.7 528.4,283.4C523.2,289.2 514.7,289.1 508.7,284.7C507.2,283.5 505.7,286.1 507.2,287.3C514.8,292.9 525.9,292 531.6,284.1C537.5,276.1 535.4,264.9 527.1,259.5C507.1,246.6 489.9,283.8 512.3,290.8C514.2,291.4 515,288.5 513.1,287.9Z" style="fill:rgb(242,196,43);fill-rule:nonzero;"/>
        </g>
        <g transform="matrix(0.304526,0,0,0.305,-50.5061,-12.1276)">
            <path d="M529.2,290.5C521.7,292.8 519.9,283.8 523.2,279C525.9,275.1 531.2,272.8 536,274.1C540.6,275.3 543.9,280 542.7,284.7C541.2,290.6 535,292.7 529.5,291.8C527.6,291.5 526.8,294.4 528.7,294.7C536.1,296 544.1,292.8 545.7,284.8C547.1,277.9 541.7,271.6 535,270.8C527.6,269.9 519.5,275.3 518.5,282.9C517.6,289.5 523.6,295.4 530.2,293.3C531.9,292.8 531.1,289.9 529.2,290.5Z" style="fill:rgb(242,196,43);fill-rule:nonzero;"/>
        </g>
        <g transform="matrix(0.151985,-0.222111,0.221766,0.152222,-2.66004,221.47)">
            <path d="M595.7,187.8C591.8,185.1 586.5,180.8 588.1,175.4C589.8,169.8 594,172.5 597.9,171.2C603.1,169.5 602.8,163.2 601.3,159.1C599.8,155.1 596.6,145.4 604.9,148.7C606.8,149.5 608.2,150.8 610.4,150.1C612.4,149.5 613.4,147.7 613.9,145.8C614.3,144.1 614,142.3 613.9,140.5C613.7,139.3 613.6,138 613.6,136.8C613.2,133.9 615,132.7 618.8,133.2C618.9,135.1 621.9,135.1 621.8,133.2C621.6,130.4 619.5,128.4 616.5,128.5C613,128.6 611.1,132 610.7,135.2C610.4,137.4 612.2,142.5 611.2,144.3C610,145.1 608.8,146 607.5,146.8C607,146.5 606.5,146.2 606,145.9C605.1,145.6 604.4,145 603.5,144.8C600.4,144.1 597.9,146 596.8,148.8C594.9,153.6 598.3,157.6 599.3,162.1C600.6,168.3 595.9,167.6 591.8,168.3C590,168.6 588.5,169.5 587.3,170.8C581,178.1 588.3,186.2 594.3,190.4C595.8,191.5 597.3,188.9 595.7,187.8Z" style="fill:rgb(242,196,43);fill-rule:nonzero;"/>
        </g>
        <g transform="matrix(-0.216714,0.361302,-0.360741,-0.217051,344.925,-69.1846)">
            <path d="M615.4,185C612.1,181.2 609.6,176 616,174C617.6,173.5 619.4,173.7 620.9,172.7C624.2,170.4 622.8,167.3 622.2,164.1C621.9,162.3 621.2,159.9 622.3,158.1C623.1,156.8 626,156.3 627.5,156C629.6,155.5 631.8,155.2 633.6,154C636.3,152.1 637.3,148.7 635.5,145.8C634.5,144.2 631.9,145.7 632.9,147.3C635.9,152.1 621.9,153.4 619.5,156.9C616.7,161 622.6,168.2 617.7,170.8C615.8,171.8 613.4,171.1 611.6,172.4C610.3,173.3 609.4,174.7 609,176.2C607.9,180.5 610.8,184.2 613.4,187.2C614.6,188.6 616.7,186.5 615.4,185Z" style="fill:rgb(242,196,43);fill-rule:nonzero;"/>
        </g>
        <g transform="matrix(0.134196,-0.228608,0.228252,0.134405,4.99821,118.898)">
            <path d="M497.3,161.3C494.7,159.5 494.4,156.3 495.2,153.5C495.7,151.6 498.1,146.4 500.4,146.2C504.2,145.8 506.1,150.6 507.1,153.4C508,156.1 508.3,158.8 508.4,161.6C508.4,163.5 511.4,163.5 511.4,161.6C511.3,156 507.6,138.8 498.4,143.8C494.9,145.7 492.3,151.2 491.9,155C491.5,158.6 492.9,161.8 495.8,163.9C497.3,165 498.8,162.4 497.3,161.3Z" style="fill:rgb(242,196,43);fill-rule:nonzero;"/>
        </g>
        <g transform="matrix(0.134196,-0.228608,0.228252,0.134405,4.99821,118.898)">
            <path d="M496.1,162.9C492.5,163.8 488.9,164.7 485.2,165.6C483.1,166.1 479.5,166.3 477.8,167.9C474.9,170.6 475.7,178.9 475.7,182.4C475.7,183.4 476.7,184.1 477.6,183.8C478.1,183.7 478.6,183.5 479.2,183.4C481.8,182 483.1,182.9 483.2,185.9C485.2,187.9 485.2,189.1 483.2,189.3C482,189.8 480.8,190 479.5,190C478.7,190.1 478,190.6 478,191.5C478.2,197.9 478.7,204.2 479.4,210.6C479.6,212.5 482.6,212.5 482.4,210.6C481.7,204.2 481.2,197.9 481,191.5C480.5,192 480,192.5 479.5,193C483.7,192.5 490.4,190.8 489.5,185.1C488.5,179 481.1,179.7 476.9,180.9C477.5,181.4 478.2,181.9 478.8,182.3C478.8,180 478.8,177.8 479,175.5C479.3,171.9 479.1,170.6 482.4,169.3C486.9,167.5 492.2,166.9 496.9,165.7C498.8,165.4 498,162.5 496.1,162.9Z" style="fill:rgb(242,196,43);fill-rule:nonzero;"/>
        </g>
        <g transform="matrix(0.134196,-0.228608,0.228252,0.134405,4.99821,118.898)">
            <path d="M510.5,163.8C514.7,163.6 519,163.6 523.2,164.1C527.2,164.6 527,165.2 527.6,168.7C528,170.9 528.1,173.2 528.3,175.4C529.1,184 529.7,192.6 530.2,201.2C530.3,203.1 533.3,203.1 533.2,201.2C532.6,189.5 532.2,177.5 530.3,165.9C529.8,163 529.3,162.1 526.3,161.6C521.1,160.6 515.7,160.6 510.5,160.9C508.6,160.9 508.6,163.9 510.5,163.8Z" style="fill:rgb(242,196,43);fill-rule:nonzero;"/>
        </g>
        <g transform="matrix(0.134196,-0.228608,0.228252,0.134405,4.99821,118.898)">
            <path d="M481.6,212.7C487.5,211.7 493.4,210.7 499.2,209.7C505.9,208.6 512.3,209.1 519,208.6C522.1,208.3 536.8,206.8 531.4,200.7C530.1,199.3 528,201.4 529.3,202.8C530.1,203.7 516.5,205.7 516.2,205.7C512,205.8 507.8,205.6 503.6,206.1C496,207 488.4,208.6 480.8,209.9C478.9,210.1 479.7,213 481.6,212.7Z" style="fill:rgb(242,196,43);fill-rule:nonzero;"/>
        </g>
    </g>
</svg>
